<svg data-v-423bf9ae="" xmlns="http://www.w3.org/2000/svg" viewBox="0 0 802.0151199313487 193" class="fontAboveSlogan"><!----><!----><!----><g data-v-423bf9ae="" id="eaa8a8d4-906c-4d09-b0ac-2a41b3bb9912" fill="white" transform="matrix(7.542426219414388,0,0,7.542426219414388,158.0679149908286,-47.93695297549985)"><path d="M9.58 7.21L9.58 7.21Q10.11 7.60 10.40 8.20L10.40 8.20L10.40 8.20Q10.70 8.81 10.70 9.42L10.70 9.42L10.70 9.42Q10.70 9.95 10.54 10.56L10.54 10.56L10.54 10.56Q10.37 11.17 10.12 11.75L10.12 11.75L7.21 18.42L5.40 13.57L3.61 18.42L-0.01 8.61L1.32 8.12L3.99 15.57L5.08 12.67L3.81 9.25L5.17 8.75L7.67 15.83L9.10 12.60L9.10 12.60Q9.34 12.01 9.48 11.53L9.48 11.53L9.48 11.53Q9.62 11.05 9.62 10.67L9.62 10.67L9.62 10.67Q9.62 9.41 8.43 8.44L8.43 8.44L9.58 7.21ZM13.99 10.96L14.24 11.26L14.24 11.26Q13.19 11.93 12.59 12.75L12.59 12.75L12.59 12.75Q11.98 13.58 11.98 14.70L11.98 14.70L11.98 14.70Q11.98 15.33 12.25 15.97L12.25 15.97L12.25 15.97Q12.52 16.60 13.05 17.02L13.05 17.02L13.05 17.02Q13.58 17.44 14.32 17.44L14.32 17.44L14.32 17.44Q14.92 17.44 15.39 17.16L15.39 17.16L15.39 17.16Q15.86 16.88 16.12 16.41L16.12 16.41L16.12 16.41Q16.38 15.93 16.38 15.36L16.38 15.36L16.38 15.36Q16.38 14.70 15.98 14.01L15.98 14.01L15.98 14.01Q15.58 13.33 14.94 12.85L14.94 12.85L14.94 12.85Q14.29 12.38 13.62 12.32L13.62 12.32L13.62 12.32Q13.90 12.04 14.29 11.73L14.29 11.73L14.29 11.73Q14.69 11.42 15.09 11.13L15.09 11.13L15.09 11.13Q16.06 11.45 16.62 12.36L16.62 12.36L16.62 12.36Q17.18 13.26 17.18 14.36L17.18 14.36L17.18 14.36Q17.18 15.34 16.78 16.25L16.78 16.25L16.78 16.25Q16.38 17.15 15.61 17.72L15.61 17.72L15.61 17.72Q14.84 18.28 13.79 18.28L13.79 18.28L13.79 18.28Q12.95 18.28 12.24 17.87L12.24 17.87L12.24 17.87Q11.54 17.46 11.13 16.74L11.13 16.74L11.13 16.74Q10.72 16.03 10.72 15.16L10.72 15.16L10.72 15.16Q10.72 13.64 11.63 12.52L11.63 12.52L11.63 12.52Q12.53 11.40 13.99 10.96L13.99 10.96ZM21.69 10.96L21.94 11.26L21.94 11.26Q20.89 11.93 20.29 12.75L20.29 12.75L20.29 12.75Q19.68 13.58 19.68 14.70L19.68 14.70L19.68 14.70Q19.68 15.33 19.95 15.97L19.95 15.97L19.95 15.97Q20.22 16.60 20.75 17.02L20.75 17.02L20.75 17.02Q21.28 17.44 22.02 17.44L22.02 17.44L22.02 17.44Q22.62 17.44 23.09 17.16L23.09 17.16L23.09 17.16Q23.56 16.88 23.82 16.41L23.82 16.41L23.82 16.41Q24.08 15.93 24.08 15.36L24.08 15.36L24.08 15.36Q24.08 14.70 23.68 14.01L23.68 14.01L23.68 14.01Q23.28 13.33 22.64 12.85L22.64 12.85L22.64 12.85Q21.99 12.38 21.32 12.32L21.32 12.32L21.32 12.32Q21.60 12.04 21.99 11.73L21.99 11.73L21.99 11.73Q22.39 11.42 22.79 11.13L22.79 11.13L22.79 11.13Q23.76 11.45 24.32 12.36L24.32 12.36L24.32 12.36Q24.88 13.26 24.88 14.36L24.88 14.36L24.88 14.36Q24.88 15.34 24.48 16.25L24.48 16.25L24.48 16.25Q24.08 17.15 23.31 17.72L23.31 17.72L23.31 17.72Q22.54 18.28 21.49 18.28L21.49 18.28L21.49 18.28Q20.65 18.28 19.94 17.87L19.94 17.87L19.94 17.87Q19.24 17.46 18.83 16.74L18.83 16.74L18.83 16.74Q18.42 16.03 18.42 15.16L18.42 15.16L18.42 15.16Q18.42 13.64 19.33 12.52L19.33 12.52L19.33 12.52Q20.23 11.40 21.69 10.96L21.69 10.96ZM30.91 7.87L30.91 7.87Q31.67 7.87 32.14 8.23L32.14 8.23L32.14 8.23Q32.61 8.60 32.61 9.23L32.61 9.23L32.61 9.23Q32.61 9.79 32.16 10.35L32.16 10.35L32.16 10.35Q31.72 10.91 31.02 11.30L31.02 11.30L31.02 11.30Q30.31 11.69 29.55 11.79L29.55 11.79L29.43 11.52L29.43 11.52Q30.18 11.28 30.69 10.74L30.69 10.74L30.69 10.74Q31.19 10.19 31.19 9.59L31.19 9.59L31.19 9.59Q31.19 9.14 30.91 8.90L30.91 8.90L30.91 8.90Q30.62 8.65 30.14 8.65L30.14 8.65L30.14 8.65Q28.99 8.65 28.43 9.44L28.43 9.44L28.43 9.44Q27.87 10.23 27.87 11.33L27.87 11.33L27.87 15.67L27.87 15.67Q27.87 16.10 27.74 16.41L27.74 16.41L27.74 16.41Q27.61 16.73 27.33 17.07L27.33 17.07L27.40 17.11L27.40 17.11Q27.73 16.86 28.04 16.73L28.04 16.73L28.04 16.73Q28.35 16.60 28.76 16.60L28.76 16.60L28.76 16.60Q29.32 16.60 29.93 16.70L29.93 16.70L29.93 16.70Q30.02 16.72 30.37 16.76L30.37 16.76L30.37 16.76Q30.72 16.80 31.12 16.80L31.12 16.80L31.12 16.80Q31.60 16.80 32.02 16.55L32.02 16.55L32.02 16.55Q32.44 16.30 32.73 15.90L32.73 15.90L32.98 16.07L31.95 18.24L31.95 18.24Q31.29 18.17 30.44 17.98L30.44 17.98L30.44 17.98Q29.58 17.81 29.04 17.73L29.04 17.73L29.04 17.73Q28.50 17.65 27.87 17.65L27.87 17.65L27.87 17.65Q27.47 17.65 27.01 17.79L27.01 17.79L27.01 17.79Q26.54 17.93 26.19 18.20L26.19 18.20L25.87 17.93L25.87 17.93Q26.57 17.39 26.57 16.42L26.57 16.42L26.57 12.47L26.57 12.47Q26.57 11.19 27.12 10.14L27.12 10.14L27.12 10.14Q27.66 9.09 28.65 8.48L28.65 8.48L28.65 8.48Q29.64 7.87 30.91 7.87L30.91 7.87ZM35.71 6.41L35.24 9.67L34.78 9.84L34.20 6.93L35.71 6.41ZM35.70 11.14L35.70 16.91L35.70 16.91Q35.70 17.12 35.80 17.26L35.80 17.26L35.80 17.26Q35.91 17.39 36.11 17.39L36.11 17.39L36.11 17.39Q36.26 17.39 36.45 17.25L36.45 17.25L36.45 17.25Q36.64 17.11 36.83 16.84L36.83 16.84L37.06 17.05L37.06 17.05Q36.74 17.65 36.28 17.91L36.28 17.91L36.28 17.91Q35.83 18.16 35.45 18.16L35.45 18.16L35.45 18.16Q34.94 18.16 34.67 17.84L34.67 17.84L34.67 17.84Q34.40 17.51 34.40 16.74L34.40 16.74L34.40 11.65L35.70 11.14ZM43.13 10.61L43.13 10.61Q43.69 10.79 44.00 11.21L44.00 11.21L44.00 11.21Q44.31 11.63 44.31 12.18L44.31 12.18L44.31 12.18Q44.31 12.47 44.23 12.82L44.23 12.82L44.23 12.82Q44.16 13.17 44.03 13.43L44.03 13.43L41.59 18.24L41.59 18.24Q41.57 18.27 41.48 18.30L41.48 18.30L41.48 18.30Q41.38 18.33 41.31 18.33L41.31 18.33L41.31 18.33Q41.20 18.33 41.10 18.28L41.10 18.28L41.10 18.28Q40.99 18.24 40.98 18.20L40.98 18.20L38.56 12.91L38.56 12.91Q38.21 12.26 37.83 12.26L37.83 12.26L37.83 12.26Q37.69 12.26 37.57 12.36L37.57 12.36L37.57 12.36Q37.45 12.45 37.41 12.47L37.41 12.47L37.28 12.32L37.28 12.32Q37.45 11.79 37.91 11.44L37.91 11.44L37.91 11.44Q38.36 11.09 38.82 11.09L38.82 11.09L38.82 11.09Q39.09 11.09 39.29 11.44L39.29 11.44L39.29 11.44Q39.49 11.79 39.62 12.12L39.62 12.12L39.62 12.12Q39.75 12.45 39.79 12.54L39.79 12.54L41.75 16.90L42.99 14.36L42.99 14.36Q43.01 14.32 43.11 14.06L43.11 14.06L43.11 14.06Q43.22 13.79 43.22 13.54L43.22 13.54L43.22 13.54Q43.22 12.50 42.10 11.98L42.10 11.98L43.13 10.61ZM49.07 10.96L49.07 10.96Q49.83 10.96 50.33 11.37L50.33 11.37L50.33 11.37Q50.83 11.77 50.83 12.57L50.83 12.57L50.83 12.57Q50.83 13.22 50.14 14.01L50.14 14.01L50.14 14.01Q49.45 14.80 48.52 15.46L48.52 15.46L48.52 15.46Q47.59 16.11 46.93 16.38L46.93 16.38L46.93 16.38Q47.28 16.94 47.73 17.16L47.73 17.16L47.73 17.16Q48.17 17.37 48.78 17.37L48.78 17.37L48.78 17.37Q49.45 17.37 50.11 17.03L50.11 17.03L50.11 17.03Q50.78 16.69 51.21 16.14L51.21 16.14L51.38 16.44L51.38 16.44Q50.69 17.32 49.92 17.79L49.92 17.79L49.92 17.79Q49.15 18.26 48.03 18.26L48.03 18.26L48.03 18.26Q47.18 18.26 46.51 17.84L46.51 17.84L46.51 17.84Q45.84 17.42 45.46 16.71L45.46 16.71L45.46 16.71Q45.08 16.00 45.08 15.18L45.08 15.18L45.08 15.18Q45.08 14.14 45.64 13.16L45.64 13.16L45.64 13.16Q46.20 12.18 47.12 11.57L47.12 11.57L47.12 11.57Q48.05 10.96 49.07 10.96L49.07 10.96ZM48.34 11.84L48.34 11.84Q47.73 11.84 47.24 12.24L47.24 12.24L47.24 12.24Q46.76 12.63 46.49 13.24L46.49 13.24L46.49 13.24Q46.21 13.86 46.21 14.52L46.21 14.52L46.21 14.52Q46.21 15.39 46.62 16.00L46.62 16.00L46.62 16.00Q47.21 15.74 47.89 15.20L47.89 15.20L47.89 15.20Q48.58 14.66 49.06 14.03L49.06 14.03L49.06 14.03Q49.53 13.40 49.53 12.88L49.53 12.88L49.53 12.88Q49.53 11.84 48.34 11.84L48.34 11.84ZM55.62 12.80L55.62 12.80Q54.99 13.45 54.54 14.51L54.54 14.51L54.54 14.51Q54.08 15.57 54.08 16.44L54.08 16.44L54.08 16.44Q54.08 17.19 54.41 17.70L54.41 17.70L54.41 17.70Q54.74 18.21 55.47 18.21L55.47 18.21L55.47 18.21Q56.06 18.21 56.59 17.91L56.59 17.91L56.59 17.91Q57.13 17.60 57.51 17.11L57.51 17.11L57.36 16.90L57.36 16.90Q56.92 17.19 56.50 17.19L56.50 17.19L56.50 17.19Q55.85 17.19 55.51 16.73L55.51 16.73L55.51 16.73Q55.17 16.27 55.17 15.61L55.17 15.61L55.17 15.61Q55.17 14.55 55.72 13.59L55.72 13.59L55.72 13.59Q56.27 12.64 57.11 11.75L57.11 11.75L56.88 11.55L56.88 11.55Q55.90 12.17 55.09 12.17L55.09 12.17L55.09 12.17Q54.61 12.17 54.22 11.74L54.22 11.74L54.22 11.74Q53.83 11.31 53.62 10.79L53.62 10.79L52.49 12.07L52.49 12.07Q52.58 12.35 53.02 12.71L53.02 12.71L52.08 14.67L52.60 14.91L53.51 12.91L53.51 12.91Q53.75 13.01 53.90 13.03L53.90 13.03L53.90 13.03Q54.05 13.06 54.32 13.06L54.32 13.06L54.32 13.06Q55.01 13.06 55.58 12.75L55.58 12.75L55.62 12.80ZM64.69 10.89L64.69 17.33L64.69 17.33Q64.69 18.65 64.17 19.80L64.17 19.80L64.17 19.80Q63.64 20.94 62.78 21.63L62.78 21.63L62.78 21.63Q61.91 22.32 60.93 22.32L60.93 22.32L60.93 22.32Q60.55 22.32 60.21 22.20L60.21 22.20L60.21 22.20Q59.88 22.09 59.51 21.83L59.51 21.83L60.49 20.58L60.49 20.58Q60.79 20.87 61.19 21.06L61.19 21.06L61.19 21.06Q61.59 21.24 61.94 21.24L61.94 21.24L61.94 21.24Q62.37 21.24 62.72 20.72L62.72 20.72L62.72 20.72Q63.07 20.20 63.27 19.29L63.27 19.29L63.27 19.29Q63.48 18.38 63.48 17.23L63.48 17.23L63.48 17.23Q63.48 14.63 63.49 13.89L63.49 13.89L63.49 13.05L63.41 13.05L63.41 13.05Q62.26 18.26 60.42 18.26L60.42 18.26L60.42 18.26Q60.02 18.26 59.82 18.10L59.82 18.10L59.82 18.10Q59.63 17.93 59.56 17.51L59.56 17.51L59.56 17.51Q59.49 17.09 59.49 16.24L59.49 16.24L59.49 12.29L59.49 12.29Q59.49 12.07 59.37 11.91L59.37 11.91L59.37 11.91Q59.26 11.76 59.09 11.76L59.09 11.76L59.09 11.76Q58.74 11.76 58.35 12.33L58.35 12.33L58.13 12.11L58.13 12.11Q58.44 11.45 58.74 11.21L58.74 11.21L58.74 11.21Q59.04 10.98 59.61 10.98L59.61 10.98L59.61 10.98Q60.17 10.98 60.45 11.33L60.45 11.33L60.45 11.33Q60.73 11.69 60.73 12.38L60.73 12.38L60.73 16.20L60.73 16.20Q60.73 16.72 61.03 16.72L61.03 16.72L61.03 16.72Q61.38 16.72 61.92 15.76L61.92 15.76L61.92 15.76Q62.47 14.81 62.89 13.56L62.89 13.56L62.89 13.56Q63.31 12.31 63.31 11.52L63.31 11.52L64.69 10.89Z"></path></g><!----><!----><g data-v-423bf9ae="" id="23f0b8e8-e9a2-4f07-8393-eb26133aeaf1" fill="white" transform="matrix(3.494467078240729,0,0,3.494467078240729,0.03495520247906825,115.00349373696474)"><path d="M9.58 7.21L9.58 7.21Q10.11 7.60 10.40 8.20L10.40 8.20L10.40 8.20Q10.70 8.81 10.70 9.42L10.70 9.42L10.70 9.42Q10.70 9.95 10.54 10.56L10.54 10.56L10.54 10.56Q10.37 11.17 10.12 11.75L10.12 11.75L7.21 18.42L5.40 13.57L3.61 18.42L-0.01 8.61L1.32 8.12L3.99 15.57L5.08 12.67L3.81 9.25L5.17 8.75L7.67 15.83L9.10 12.60L9.10 12.60Q9.34 12.01 9.48 11.53L9.48 11.53L9.48 11.53Q9.62 11.05 9.62 10.67L9.62 10.67L9.62 10.67Q9.62 9.41 8.43 8.44L8.43 8.44L9.58 7.21ZM13.99 10.96L14.24 11.26L14.24 11.26Q13.19 11.93 12.59 12.75L12.59 12.75L12.59 12.75Q11.98 13.58 11.98 14.70L11.98 14.70L11.98 14.70Q11.98 15.33 12.25 15.97L12.25 15.97L12.25 15.97Q12.52 16.60 13.05 17.02L13.05 17.02L13.05 17.02Q13.58 17.44 14.32 17.44L14.32 17.44L14.32 17.44Q14.92 17.44 15.39 17.16L15.39 17.16L15.39 17.16Q15.86 16.88 16.12 16.41L16.12 16.41L16.12 16.41Q16.38 15.93 16.38 15.36L16.38 15.36L16.38 15.36Q16.38 14.70 15.98 14.01L15.98 14.01L15.98 14.01Q15.58 13.33 14.94 12.85L14.94 12.85L14.94 12.85Q14.29 12.38 13.62 12.32L13.62 12.32L13.62 12.32Q13.90 12.04 14.29 11.73L14.29 11.73L14.29 11.73Q14.69 11.42 15.09 11.13L15.09 11.13L15.09 11.13Q16.06 11.45 16.62 12.36L16.62 12.36L16.62 12.36Q17.18 13.26 17.18 14.36L17.18 14.36L17.18 14.36Q17.18 15.34 16.78 16.25L16.78 16.25L16.78 16.25Q16.38 17.15 15.61 17.72L15.61 17.72L15.61 17.72Q14.84 18.28 13.79 18.28L13.79 18.28L13.79 18.28Q12.95 18.28 12.24 17.87L12.24 17.87L12.24 17.87Q11.54 17.46 11.13 16.74L11.13 16.74L11.13 16.74Q10.72 16.03 10.72 15.16L10.72 15.16L10.72 15.16Q10.72 13.64 11.63 12.52L11.63 12.52L11.63 12.52Q12.53 11.40 13.99 10.96L13.99 10.96ZM21.66 12.80L21.66 12.80Q21.03 13.45 20.57 14.51L20.57 14.51L20.57 14.51Q20.12 15.57 20.12 16.44L20.12 16.44L20.12 16.44Q20.12 17.19 20.45 17.70L20.45 17.70L20.45 17.70Q20.78 18.21 21.50 18.21L21.50 18.21L21.50 18.21Q22.09 18.21 22.63 17.91L22.63 17.91L22.63 17.91Q23.17 17.60 23.55 17.11L23.55 17.11L23.39 16.90L23.39 16.90Q22.96 17.19 22.54 17.19L22.54 17.19L22.54 17.19Q21.88 17.19 21.55 16.73L21.55 16.73L21.55 16.73Q21.21 16.27 21.21 15.61L21.21 15.61L21.21 15.61Q21.21 14.55 21.76 13.59L21.76 13.59L21.76 13.59Q22.30 12.64 23.14 11.75L23.14 11.75L22.92 11.55L22.92 11.55Q21.94 12.17 21.13 12.17L21.13 12.17L21.13 12.17Q20.65 12.17 20.26 11.74L20.26 11.74L20.26 11.74Q19.87 11.31 19.66 10.79L19.66 10.79L18.52 12.07L18.52 12.07Q18.62 12.35 19.05 12.71L19.05 12.71L18.12 14.67L18.63 14.91L19.54 12.91L19.54 12.91Q19.78 13.01 19.94 13.03L19.94 13.03L19.94 13.03Q20.09 13.06 20.36 13.06L20.36 13.06L20.36 13.06Q21.04 13.06 21.62 12.75L21.62 12.75L21.66 12.80ZM28.52 11.00L28.52 11.00Q29.09 11.00 29.58 11.33L29.58 11.33L29.58 11.33Q30.07 11.65 30.35 12.35L30.35 12.35L29.20 12.94L29.20 12.94Q29.06 12.45 28.65 12.17L28.65 12.17L28.65 12.17Q28.24 11.89 27.78 11.89L27.78 11.89L27.78 11.89Q27.10 11.89 26.59 12.24L26.59 12.24L26.59 12.24Q26.07 12.59 25.79 13.13L25.79 13.13L25.79 13.13Q25.51 13.68 25.51 14.24L25.51 14.24L25.51 14.24Q25.51 15.22 25.83 15.93L25.83 15.93L25.83 15.93Q26.15 16.63 26.71 17.00L26.71 17.00L26.71 17.00Q27.27 17.37 27.97 17.37L27.97 17.37L27.97 17.37Q28.81 17.37 29.44 16.96L29.44 16.96L29.44 16.96Q30.07 16.55 30.63 15.90L30.63 15.90L30.87 16.13L30.87 16.13Q30.18 17.18 29.42 17.72L29.42 17.72L29.42 17.72Q28.66 18.26 27.55 18.26L27.55 18.26L27.55 18.26Q26.68 18.26 26.00 17.85L26.00 17.85L26.00 17.85Q25.31 17.44 24.92 16.70L24.92 16.70L24.92 16.70Q24.53 15.95 24.53 14.97L24.53 14.97L24.53 14.97Q24.53 13.87 24.98 12.97L24.98 12.97L24.98 12.97Q25.42 12.07 26.32 11.54L26.32 11.54L26.32 11.54Q27.22 11.00 28.52 11.00L28.52 11.00ZM35.85 10.96L35.85 10.96Q36.61 10.96 37.11 11.37L37.11 11.37L37.11 11.37Q37.62 11.77 37.62 12.57L37.62 12.57L37.62 12.57Q37.62 13.22 36.93 14.01L36.93 14.01L36.93 14.01Q36.23 14.80 35.30 15.46L35.30 15.46L35.30 15.46Q34.37 16.11 33.71 16.38L33.71 16.38L33.71 16.38Q34.06 16.94 34.51 17.16L34.51 17.16L34.51 17.16Q34.96 17.37 35.56 17.37L35.56 17.37L35.56 17.37Q36.23 17.37 36.90 17.03L36.90 17.03L36.90 17.03Q37.56 16.69 38.00 16.14L38.00 16.14L38.16 16.44L38.16 16.44Q37.48 17.32 36.71 17.79L36.71 17.79L36.71 17.79Q35.94 18.26 34.82 18.26L34.82 18.26L34.82 18.26Q33.96 18.26 33.29 17.84L33.29 17.84L33.29 17.84Q32.62 17.42 32.24 16.71L32.24 16.71L32.24 16.71Q31.86 16.00 31.86 15.18L31.86 15.18L31.86 15.18Q31.86 14.14 32.42 13.16L32.42 13.16L32.42 13.16Q32.98 12.18 33.91 11.57L33.91 11.57L33.91 11.57Q34.83 10.96 35.85 10.96L35.85 10.96ZM35.13 11.84L35.13 11.84Q34.51 11.84 34.03 12.24L34.03 12.24L34.03 12.24Q33.54 12.63 33.27 13.24L33.27 13.24L33.27 13.24Q33.00 13.86 33.00 14.52L33.00 14.52L33.00 14.52Q33.00 15.39 33.40 16.00L33.40 16.00L33.40 16.00Q33.99 15.74 34.68 15.20L34.68 15.20L34.68 15.20Q35.36 14.66 35.84 14.03L35.84 14.03L35.84 14.03Q36.32 13.40 36.32 12.88L36.32 12.88L36.32 12.88Q36.32 11.84 35.13 11.84L35.13 11.84ZM41.27 10.51L41.27 10.51Q41.75 10.51 41.97 10.68L41.97 10.68L41.97 10.68Q42.18 10.85 42.18 11.20L42.18 11.20L42.18 11.20Q42.18 11.58 42.04 11.87L42.04 11.87L42.04 11.87Q41.89 12.17 41.72 12.38L41.72 12.38L41.72 12.38Q41.55 12.59 41.50 12.67L41.50 12.67L41.50 12.67Q41.66 12.95 42.13 13.33L42.13 13.33L42.13 13.33Q42.50 13.65 42.73 13.90L42.73 13.90L42.73 13.90Q42.95 14.15 43.11 14.58L43.11 14.58L43.11 14.58Q43.27 15.01 43.27 15.62L43.27 15.62L43.27 15.62Q43.27 16.35 42.95 16.95L42.95 16.95L42.95 16.95Q42.62 17.56 42.04 17.91L42.04 17.91L42.04 17.91Q41.45 18.26 40.73 18.26L40.73 18.26L40.73 18.26Q40.28 18.26 39.75 18.07L39.75 18.07L39.75 18.07Q39.21 17.88 38.96 17.53L38.96 17.53L39.90 16.28L39.90 16.28Q40.24 16.72 40.61 17.02L40.61 17.02L40.61 17.02Q40.98 17.33 41.41 17.33L41.41 17.33L41.41 17.33Q42.01 17.33 42.44 16.93L42.44 16.93L42.44 16.93Q42.87 16.53 42.87 15.97L42.87 15.97L42.87 15.97Q42.87 15.53 42.50 15.09L42.50 15.09L42.50 15.09Q42.13 14.64 41.45 14.04L41.45 14.04L41.45 14.04Q41.37 13.97 41.13 13.76L41.13 13.76L41.13 13.76Q40.89 13.54 40.78 13.40L40.78 13.40L39.80 14.84L39.35 14.55L40.47 12.99L40.47 12.99Q40.28 12.45 40.28 11.91L40.28 11.91L40.28 11.91Q40.28 11.31 40.54 10.91L40.54 10.91L40.54 10.91Q40.81 10.51 41.27 10.51L41.27 10.51ZM41.27 11.06L41.27 11.06Q41.09 11.06 41.04 11.16L41.04 11.16L41.04 11.16Q40.99 11.26 40.99 11.45L40.99 11.45L40.99 11.45Q40.99 11.70 41.06 11.89L41.06 11.89L41.06 11.89Q41.13 12.07 41.16 12.14L41.16 12.14L41.16 12.14Q41.31 12.04 41.45 11.78L41.45 11.78L41.45 11.78Q41.58 11.52 41.58 11.34L41.58 11.34L41.58 11.34Q41.58 11.21 41.50 11.14L41.50 11.14L41.50 11.14Q41.43 11.06 41.27 11.06L41.27 11.06ZM46.55 7.36L46.55 11.09L48.50 11.09L48.08 11.98L46.55 11.98L46.55 16.91L46.55 16.91Q46.55 17.12 46.68 17.26L46.68 17.26L46.68 17.26Q46.80 17.39 47.01 17.39L47.01 17.39L47.01 17.39Q47.31 17.39 47.82 16.84L47.82 16.84L48.02 17.05L48.02 17.05Q47.75 17.58 47.38 17.84L47.38 17.84L47.38 17.84Q47.01 18.10 46.68 18.17L46.68 18.17L46.68 18.17Q46.35 18.23 46.35 18.17L46.35 18.17L46.35 18.17Q46.37 18.17 46.40 18.17L46.40 18.17L46.40 18.17Q46.42 18.16 46.48 18.16L46.48 18.16L46.48 18.16Q45.25 18.16 45.25 16.74L45.25 16.74L45.25 11.98L44.20 11.98L44.63 11.09L45.25 11.09L45.25 7.87L46.55 7.36ZM53.26 10.96L53.26 10.96Q54.01 10.96 54.52 11.37L54.52 11.37L54.52 11.37Q55.02 11.77 55.02 12.57L55.02 12.57L55.02 12.57Q55.02 13.22 54.33 14.01L54.33 14.01L54.33 14.01Q53.63 14.80 52.70 15.46L52.70 15.46L52.70 15.46Q51.77 16.11 51.11 16.38L51.11 16.38L51.11 16.38Q51.46 16.94 51.91 17.16L51.91 17.16L51.91 17.16Q52.36 17.37 52.96 17.37L52.96 17.37L52.96 17.37Q53.63 17.37 54.30 17.03L54.30 17.03L54.30 17.03Q54.96 16.69 55.40 16.14L55.40 16.14L55.57 16.44L55.57 16.44Q54.88 17.32 54.11 17.79L54.11 17.79L54.11 17.79Q53.34 18.26 52.22 18.26L52.22 18.26L52.22 18.26Q51.37 18.26 50.69 17.84L50.69 17.84L50.69 17.84Q50.02 17.42 49.64 16.71L49.64 16.71L49.64 16.71Q49.27 16.00 49.27 15.18L49.27 15.18L49.27 15.18Q49.27 14.14 49.83 13.16L49.83 13.16L49.83 13.16Q50.39 12.18 51.31 11.57L51.31 11.57L51.31 11.57Q52.23 10.96 53.26 10.96L53.26 10.96ZM52.53 11.84L52.53 11.84Q51.91 11.84 51.43 12.24L51.43 12.24L51.43 12.24Q50.95 12.63 50.67 13.24L50.67 13.24L50.67 13.24Q50.40 13.86 50.40 14.52L50.40 14.52L50.40 14.52Q50.40 15.39 50.81 16.00L50.81 16.00L50.81 16.00Q51.39 15.74 52.08 15.20L52.08 15.20L52.08 15.20Q52.77 14.66 53.24 14.03L53.24 14.03L53.24 14.03Q53.72 13.40 53.72 12.88L53.72 12.88L53.72 12.88Q53.72 11.84 52.53 11.84L52.53 11.84ZM59.81 12.80L59.81 12.80Q59.18 13.45 58.72 14.51L58.72 14.51L58.72 14.51Q58.27 15.57 58.27 16.44L58.27 16.44L58.27 16.44Q58.27 17.19 58.60 17.70L58.60 17.70L58.60 17.70Q58.93 18.21 59.65 18.21L59.65 18.21L59.65 18.21Q60.24 18.21 60.78 17.91L60.78 17.91L60.78 17.91Q61.32 17.60 61.70 17.11L61.70 17.11L61.54 16.90L61.54 16.90Q61.11 17.19 60.69 17.19L60.69 17.19L60.69 17.19Q60.03 17.19 59.70 16.73L59.70 16.73L59.70 16.73Q59.36 16.27 59.36 15.61L59.36 15.61L59.36 15.61Q59.36 14.55 59.91 13.59L59.91 13.59L59.91 13.59Q60.45 12.64 61.29 11.75L61.29 11.75L61.07 11.55L61.07 11.55Q60.09 12.17 59.28 12.17L59.28 12.17L59.28 12.17Q58.80 12.17 58.41 11.74L58.41 11.74L58.41 11.74Q58.02 11.31 57.81 10.79L57.81 10.79L56.67 12.07L56.67 12.07Q56.77 12.35 57.20 12.71L57.20 12.71L56.27 14.67L56.78 14.91L57.69 12.91L57.69 12.91Q57.93 13.01 58.09 13.03L58.09 13.03L58.09 13.03Q58.24 13.06 58.51 13.06L58.51 13.06L58.51 13.06Q59.19 13.06 59.77 12.75L59.77 12.75L59.81 12.80ZM62.65 8.72L63.13 11.80L63.73 11.55L64.16 8.12L62.65 8.72ZM67.52 10.51L67.52 10.51Q68.00 10.51 68.22 10.68L68.22 10.68L68.22 10.68Q68.43 10.85 68.43 11.20L68.43 11.20L68.43 11.20Q68.43 11.58 68.28 11.87L68.28 11.87L68.28 11.87Q68.14 12.17 67.97 12.38L67.97 12.38L67.97 12.38Q67.80 12.59 67.75 12.67L67.75 12.67L67.75 12.67Q67.91 12.95 68.38 13.33L68.38 13.33L68.38 13.33Q68.75 13.65 68.98 13.90L68.98 13.90L68.98 13.90Q69.20 14.15 69.36 14.58L69.36 14.58L69.36 14.58Q69.52 15.01 69.52 15.62L69.52 15.62L69.52 15.62Q69.52 16.35 69.20 16.95L69.20 16.95L69.20 16.95Q68.87 17.56 68.28 17.91L68.28 17.91L68.28 17.91Q67.70 18.26 66.98 18.26L66.98 18.26L66.98 18.26Q66.53 18.26 66.00 18.07L66.00 18.07L66.00 18.07Q65.46 17.88 65.21 17.53L65.21 17.53L66.15 16.28L66.15 16.28Q66.49 16.72 66.86 17.02L66.86 17.02L66.86 17.02Q67.23 17.33 67.66 17.33L67.66 17.33L67.66 17.33Q68.26 17.33 68.69 16.93L68.69 16.93L68.69 16.93Q69.12 16.53 69.12 15.97L69.12 15.97L69.12 15.97Q69.12 15.53 68.75 15.09L68.75 15.09L68.75 15.09Q68.38 14.64 67.70 14.04L67.70 14.04L67.70 14.04Q67.62 13.97 67.38 13.76L67.38 13.76L67.38 13.76Q67.14 13.54 67.03 13.40L67.03 13.40L66.05 14.84L65.60 14.55L66.72 12.99L66.72 12.99Q66.53 12.45 66.53 11.91L66.53 11.91L66.53 11.91Q66.53 11.31 66.79 10.91L66.79 10.91L66.79 10.91Q67.06 10.51 67.52 10.51L67.52 10.51ZM67.52 11.06L67.52 11.06Q67.34 11.06 67.29 11.16L67.29 11.16L67.29 11.16Q67.24 11.26 67.24 11.45L67.24 11.45L67.24 11.45Q67.24 11.70 67.31 11.89L67.31 11.89L67.31 11.89Q67.38 12.07 67.41 12.14L67.41 12.14L67.41 12.14Q67.56 12.04 67.70 11.78L67.70 11.78L67.70 11.78Q67.83 11.52 67.83 11.34L67.83 11.34L67.83 11.34Q67.83 11.21 67.75 11.14L67.75 11.14L67.75 11.14Q67.68 11.06 67.52 11.06L67.52 11.06ZM78.61 8.08L78.61 8.08Q79.94 8.08 80.79 8.80L80.79 8.80L80.79 8.80Q81.63 9.52 81.63 10.96L81.63 10.96L81.63 10.96Q81.63 12.11 80.86 13.10L80.86 13.10L80.86 13.10Q80.09 14.08 78.90 14.67L78.90 14.67L78.90 14.67Q77.70 15.26 76.50 15.26L76.50 15.26L76.50 15.26Q76.37 15.26 76.34 15.23L76.34 15.23L76.41 14.85L76.41 14.85Q77.35 14.76 78.25 14.27L78.25 14.27L78.25 14.27Q79.14 13.78 79.71 12.99L79.71 12.99L79.71 12.99Q80.28 12.19 80.28 11.23L80.28 11.23L80.28 11.23Q80.28 10.18 79.64 9.55L79.64 9.55L79.64 9.55Q79.00 8.92 77.76 8.92L77.76 8.92L77.76 8.92Q76.79 8.92 75.72 9.37L75.72 9.37L75.72 9.37Q74.65 9.83 73.85 10.56L73.85 10.56L73.58 10.26L73.58 10.26Q74.61 9.31 75.97 8.69L75.97 8.69L75.97 8.69Q77.34 8.08 78.61 8.08L78.61 8.08ZM75.77 10.11L75.77 17.78L74.48 18.27L74.48 10.61L75.77 10.11ZM85.40 12.80L85.40 12.80Q84.77 13.45 84.31 14.51L84.31 14.51L84.31 14.51Q83.86 15.57 83.86 16.44L83.86 16.44L83.86 16.44Q83.86 17.19 84.19 17.70L84.19 17.70L84.19 17.70Q84.52 18.21 85.25 18.21L85.25 18.21L85.25 18.21Q85.83 18.21 86.37 17.91L86.37 17.91L86.37 17.91Q86.91 17.60 87.29 17.11L87.29 17.11L87.14 16.90L87.14 16.90Q86.70 17.19 86.28 17.19L86.28 17.19L86.28 17.19Q85.62 17.19 85.29 16.73L85.29 16.73L85.29 16.73Q84.95 16.27 84.95 15.61L84.95 15.61L84.95 15.61Q84.95 14.55 85.50 13.59L85.50 13.59L85.50 13.59Q86.04 12.64 86.88 11.75L86.88 11.75L86.66 11.55L86.66 11.55Q85.68 12.17 84.87 12.17L84.87 12.17L84.87 12.17Q84.39 12.17 84 11.74L84 11.74L84 11.74Q83.61 11.31 83.40 10.79L83.40 10.79L82.26 12.07L82.26 12.07Q82.36 12.35 82.80 12.71L82.80 12.71L81.86 14.67L82.38 14.91L83.29 12.91L83.29 12.91Q83.52 13.01 83.68 13.03L83.68 13.03L83.68 13.03Q83.83 13.06 84.10 13.06L84.10 13.06L84.10 13.06Q84.78 13.06 85.36 12.75L85.36 12.75L85.40 12.80ZM92.32 10.96L92.32 10.96Q93.07 10.96 93.58 11.37L93.58 11.37L93.58 11.37Q94.08 11.77 94.08 12.57L94.08 12.57L94.08 12.57Q94.08 13.22 93.39 14.01L93.39 14.01L93.39 14.01Q92.69 14.80 91.76 15.46L91.76 15.46L91.76 15.46Q90.83 16.11 90.17 16.38L90.17 16.38L90.17 16.38Q90.52 16.94 90.97 17.16L90.97 17.16L90.97 17.16Q91.42 17.37 92.02 17.37L92.02 17.37L92.02 17.37Q92.69 17.37 93.36 17.03L93.36 17.03L93.36 17.03Q94.02 16.69 94.46 16.14L94.46 16.14L94.63 16.44L94.63 16.44Q93.94 17.32 93.17 17.79L93.17 17.79L93.17 17.79Q92.40 18.26 91.28 18.26L91.28 18.26L91.28 18.26Q90.43 18.26 89.75 17.84L89.75 17.84L89.75 17.84Q89.08 17.42 88.70 16.71L88.70 16.71L88.70 16.71Q88.33 16.00 88.33 15.18L88.33 15.18L88.33 15.18Q88.33 14.14 88.89 13.16L88.89 13.16L88.89 13.16Q89.45 12.18 90.37 11.57L90.37 11.57L90.37 11.57Q91.29 10.96 92.32 10.96L92.32 10.96ZM91.59 11.84L91.59 11.84Q90.97 11.84 90.49 12.24L90.49 12.24L90.49 12.24Q90.01 12.63 89.73 13.24L89.73 13.24L89.73 13.24Q89.46 13.86 89.46 14.52L89.46 14.52L89.46 14.52Q89.46 15.39 89.87 16.00L89.87 16.00L89.87 16.00Q90.45 15.74 91.14 15.20L91.14 15.20L91.14 15.20Q91.83 14.66 92.30 14.03L92.30 14.03L92.30 14.03Q92.78 13.40 92.78 12.88L92.78 12.88L92.78 12.88Q92.78 11.84 91.59 11.84L91.59 11.84ZM103.29 10.96L103.29 10.96Q103.71 10.96 103.94 11.24L103.94 11.24L103.94 11.24Q104.17 11.51 104.17 12.15L104.17 12.15L104.17 16.91L104.17 16.91Q104.17 17.12 104.27 17.26L104.27 17.26L104.27 17.26Q104.37 17.39 104.54 17.39L104.54 17.39L104.54 17.39Q104.71 17.39 104.90 17.25L104.90 17.25L104.90 17.25Q105.10 17.11 105.28 16.84L105.28 16.84L105.50 17.05L105.50 17.05Q105.21 17.68 104.80 17.93L104.80 17.93L104.80 17.93Q104.40 18.17 104.65 18.17L104.65 18.17L104.65 18.17Q104.90 18.16 104.05 18.16L104.05 18.16L104.05 18.16Q102.89 18.16 102.89 16.74L102.89 16.74L102.89 12.88L102.89 12.88Q102.89 12.74 102.82 12.64L102.82 12.64L102.82 12.64Q102.75 12.54 102.63 12.54L102.63 12.54L102.63 12.54Q102.33 12.54 101.96 13.22L101.96 13.22L101.96 13.22Q101.60 13.89 101.35 15.11L101.35 15.11L101.35 15.11Q101.09 16.34 101.09 17.92L101.09 17.92L99.82 18.28L99.82 12.88L99.82 12.88Q99.82 12.74 99.75 12.64L99.75 12.64L99.75 12.64Q99.68 12.54 99.58 12.54L99.58 12.54L99.58 12.54Q99.30 12.54 98.93 13.22L98.93 13.22L98.93 13.22Q98.56 13.90 98.29 15.13L98.29 15.13L98.29 15.13Q98.01 16.35 98.01 17.92L98.01 17.92L96.81 18.28L96.81 12.29L96.81 12.29Q96.81 12.05 96.69 11.91L96.69 11.91L96.69 11.91Q96.57 11.77 96.39 11.77L96.39 11.77L96.39 11.77Q96.04 11.77 95.68 12.38L95.68 12.38L95.45 12.15L95.45 12.15Q95.75 11.52 96.15 11.25L96.15 11.25L96.15 11.25Q96.56 10.98 96.65 10.97L96.65 10.97L96.65 10.97Q96.74 10.96 96.92 10.96L96.92 10.96L96.92 10.96Q97.59 10.96 97.83 11.25L97.83 11.25L97.83 11.25Q98.07 11.54 98.07 12.01L98.07 12.01L98.07 14.35L98.11 14.35L98.11 14.35Q98.46 12.82 99.06 11.89L99.06 11.89L99.06 11.89Q99.65 10.96 100.24 10.96L100.24 10.96L100.24 10.96Q100.67 10.96 100.89 11.23L100.89 11.23L100.89 11.23Q101.11 11.49 101.11 12.15L101.11 12.15L101.11 14.35L101.19 14.35L101.19 14.35Q101.54 12.82 102.12 11.89L102.12 11.89L102.12 11.89Q102.70 10.96 103.29 10.96L103.29 10.96ZM108.47 6.41L108.00 9.67L107.53 9.84L106.96 6.93L108.47 6.41ZM108.46 11.14L108.46 16.91L108.46 16.91Q108.46 17.12 108.56 17.26L108.56 17.26L108.56 17.26Q108.67 17.39 108.86 17.39L108.86 17.39L108.86 17.39Q109.02 17.39 109.21 17.25L109.21 17.25L109.21 17.25Q109.40 17.11 109.59 16.84L109.59 16.84L109.82 17.05L109.82 17.05Q109.49 17.65 109.04 17.91L109.04 17.91L109.04 17.91Q108.58 18.16 108.21 18.16L108.21 18.16L108.21 18.16Q107.70 18.16 107.43 17.84L107.43 17.84L107.43 17.84Q107.16 17.51 107.16 16.74L107.16 16.74L107.16 11.65L108.46 11.14ZM114.67 10.96L114.67 10.96Q115.43 10.96 115.93 11.37L115.93 11.37L115.93 11.37Q116.44 11.77 116.44 12.57L116.44 12.57L116.44 12.57Q116.44 13.22 115.75 14.01L115.75 14.01L115.75 14.01Q115.05 14.80 114.12 15.46L114.12 15.46L114.12 15.46Q113.19 16.11 112.53 16.38L112.53 16.38L112.53 16.38Q112.88 16.94 113.33 17.16L113.33 17.16L113.33 17.16Q113.78 17.37 114.38 17.37L114.38 17.37L114.38 17.37Q115.05 17.37 115.72 17.03L115.72 17.03L115.72 17.03Q116.38 16.69 116.82 16.14L116.82 16.14L116.98 16.44L116.98 16.44Q116.30 17.32 115.53 17.79L115.53 17.79L115.53 17.79Q114.76 18.26 113.64 18.26L113.64 18.26L113.64 18.26Q112.78 18.26 112.11 17.84L112.11 17.84L112.11 17.84Q111.44 17.42 111.06 16.71L111.06 16.71L111.06 16.71Q110.68 16.00 110.68 15.18L110.68 15.18L110.68 15.18Q110.68 14.14 111.24 13.16L111.24 13.16L111.24 13.16Q111.80 12.18 112.73 11.57L112.73 11.57L112.73 11.57Q113.65 10.96 114.67 10.96L114.67 10.96ZM113.95 11.84L113.95 11.84Q113.33 11.84 112.85 12.24L112.85 12.24L112.85 12.24Q112.36 12.63 112.09 13.24L112.09 13.24L112.09 13.24Q111.82 13.86 111.82 14.52L111.82 14.52L111.82 14.52Q111.82 15.39 112.22 16.00L112.22 16.00L112.22 16.00Q112.81 15.74 113.50 15.20L113.50 15.20L113.50 15.20Q114.18 14.66 114.66 14.03L114.66 14.03L114.66 14.03Q115.14 13.40 115.14 12.88L115.14 12.88L115.14 12.88Q115.14 11.84 113.95 11.84L113.95 11.84ZM121.23 12.80L121.23 12.80Q120.60 13.45 120.14 14.51L120.14 14.51L120.14 14.51Q119.69 15.57 119.69 16.44L119.69 16.44L119.69 16.44Q119.69 17.19 120.02 17.70L120.02 17.70L120.02 17.70Q120.34 18.21 121.07 18.21L121.07 18.21L121.07 18.21Q121.66 18.21 122.20 17.91L122.20 17.91L122.20 17.91Q122.74 17.60 123.12 17.11L123.12 17.11L122.96 16.90L122.96 16.90Q122.53 17.19 122.11 17.19L122.11 17.19L122.11 17.19Q121.45 17.19 121.11 16.73L121.11 16.73L121.11 16.73Q120.78 16.27 120.78 15.61L120.78 15.61L120.78 15.61Q120.78 14.55 121.32 13.59L121.32 13.59L121.32 13.59Q121.87 12.64 122.71 11.75L122.71 11.75L122.49 11.55L122.49 11.55Q121.51 12.17 120.69 12.17L120.69 12.17L120.69 12.17Q120.22 12.17 119.83 11.74L119.83 11.74L119.83 11.74Q119.43 11.31 119.22 10.79L119.22 10.79L118.09 12.07L118.09 12.07Q118.19 12.35 118.62 12.71L118.62 12.71L117.68 14.67L118.20 14.91L119.11 12.91L119.11 12.91Q119.35 13.01 119.50 13.03L119.50 13.03L119.50 13.03Q119.66 13.06 119.92 13.06L119.92 13.06L119.92 13.06Q120.61 13.06 121.18 12.75L121.18 12.75L121.23 12.80ZM131.98 8.11L131.98 8.11Q133.66 8.11 134.54 9.05L134.54 9.05L134.54 9.05Q135.42 10.00 135.42 11.61L135.42 11.61L135.42 11.61Q135.42 13.38 134.31 14.88L134.31 14.88L134.31 14.88Q133.20 16.37 131.44 17.26L131.44 17.26L131.44 17.26Q129.68 18.16 127.85 18.27L127.85 18.27L127.85 10.51L129.15 10.04L129.15 17.51L129.15 17.51Q130.54 17.15 131.61 16.33L131.61 16.33L131.61 16.33Q132.69 15.51 133.30 14.35L133.30 14.35L133.30 14.35Q133.91 13.19 133.91 11.84L133.91 11.84L133.91 11.84Q133.91 11.07 133.64 10.42L133.64 10.42L133.64 10.42Q133.38 9.76 132.81 9.34L132.81 9.34L132.81 9.34Q132.24 8.92 131.38 8.92L131.38 8.92L131.38 8.92Q130.27 8.92 129.19 9.35L129.19 9.35L129.19 9.35Q128.10 9.79 127.23 10.51L127.23 10.51L126.95 10.22L126.95 10.22Q127.85 9.34 129.30 8.72L129.30 8.72L129.30 8.72Q130.76 8.11 131.98 8.11L131.98 8.11ZM140.38 10.96L140.38 10.96Q141.13 10.96 141.64 11.37L141.64 11.37L141.64 11.37Q142.14 11.77 142.14 12.57L142.14 12.57L142.14 12.57Q142.14 13.22 141.45 14.01L141.45 14.01L141.45 14.01Q140.76 14.80 139.83 15.46L139.83 15.46L139.83 15.46Q138.89 16.11 138.24 16.38L138.24 16.38L138.24 16.38Q138.59 16.94 139.03 17.16L139.03 17.16L139.03 17.16Q139.48 17.37 140.08 17.37L140.08 17.37L140.08 17.37Q140.76 17.37 141.42 17.03L141.42 17.03L141.42 17.03Q142.09 16.69 142.52 16.14L142.52 16.14L142.69 16.44L142.69 16.44Q142.00 17.32 141.23 17.79L141.23 17.79L141.23 17.79Q140.46 18.26 139.34 18.26L139.34 18.26L139.34 18.26Q138.49 18.26 137.82 17.84L137.82 17.84L137.82 17.84Q137.14 17.42 136.77 16.71L136.77 16.71L136.77 16.71Q136.39 16.00 136.39 15.18L136.39 15.18L136.39 15.18Q136.39 14.14 136.95 13.16L136.95 13.16L136.95 13.16Q137.51 12.18 138.43 11.57L138.43 11.57L138.43 11.57Q139.36 10.96 140.38 10.96L140.38 10.96ZM139.65 11.84L139.65 11.84Q139.03 11.84 138.55 12.24L138.55 12.24L138.55 12.24Q138.07 12.63 137.80 13.24L137.80 13.24L137.80 13.24Q137.52 13.86 137.52 14.52L137.52 14.52L137.52 14.52Q137.52 15.39 137.93 16.00L137.93 16.00L137.93 16.00Q138.52 15.74 139.20 15.20L139.20 15.20L139.20 15.20Q139.89 14.66 140.36 14.03L140.36 14.03L140.36 14.03Q140.84 13.40 140.84 12.88L140.84 12.88L140.84 12.88Q140.84 11.84 139.65 11.84L139.65 11.84ZM145.61 5.15L145.61 16.91L145.61 16.91Q145.61 17.08 145.71 17.23L145.71 17.23L145.71 17.23Q145.81 17.39 146.05 17.39L146.05 17.39L146.05 17.39Q146.24 17.39 146.46 17.21L146.46 17.21L146.46 17.21Q146.68 17.04 146.79 16.84L146.79 16.84L147.03 17.05L147.03 17.05Q146.79 17.51 146.37 17.84L146.37 17.84L146.37 17.84Q145.95 18.16 145.53 18.16L145.53 18.16L145.53 18.16Q144.35 18.16 144.35 16.74L144.35 16.74L144.35 5.68L145.61 5.15ZM149.81 6.41L149.34 9.67L148.88 9.84L148.30 6.93L149.81 6.41ZM149.80 11.14L149.80 16.91L149.80 16.91Q149.80 17.12 149.91 17.26L149.91 17.26L149.91 17.26Q150.01 17.39 150.21 17.39L150.21 17.39L150.21 17.39Q150.36 17.39 150.55 17.25L150.55 17.25L150.55 17.25Q150.74 17.11 150.93 16.84L150.93 16.84L151.16 17.05L151.16 17.05Q150.84 17.65 150.38 17.91L150.38 17.91L150.38 17.91Q149.93 18.16 149.55 18.16L149.55 18.16L149.55 18.16Q149.04 18.16 148.77 17.84L148.77 17.84L148.77 17.84Q148.50 17.51 148.50 16.74L148.50 16.74L148.50 11.65L149.80 11.14ZM157.23 10.61L157.23 10.61Q157.79 10.79 158.10 11.21L158.10 11.21L158.10 11.21Q158.41 11.63 158.41 12.18L158.41 12.18L158.41 12.18Q158.41 12.47 158.33 12.82L158.33 12.82L158.33 12.82Q158.26 13.17 158.13 13.43L158.13 13.43L155.69 18.24L155.69 18.24Q155.67 18.27 155.58 18.30L155.58 18.30L155.58 18.30Q155.48 18.33 155.41 18.33L155.41 18.33L155.41 18.33Q155.30 18.33 155.20 18.28L155.20 18.28L155.20 18.28Q155.09 18.24 155.08 18.20L155.08 18.20L152.66 12.91L152.66 12.91Q152.31 12.26 151.93 12.26L151.93 12.26L151.93 12.26Q151.79 12.26 151.67 12.36L151.67 12.36L151.67 12.36Q151.55 12.45 151.51 12.47L151.51 12.47L151.38 12.32L151.38 12.32Q151.55 11.79 152.01 11.44L152.01 11.44L152.01 11.44Q152.46 11.09 152.92 11.09L152.92 11.09L152.92 11.09Q153.19 11.09 153.39 11.44L153.39 11.44L153.39 11.44Q153.59 11.79 153.72 12.12L153.72 12.12L153.72 12.12Q153.85 12.45 153.89 12.54L153.89 12.54L155.85 16.90L157.09 14.36L157.09 14.36Q157.11 14.32 157.21 14.06L157.21 14.06L157.21 14.06Q157.32 13.79 157.32 13.54L157.32 13.54L157.32 13.54Q157.32 12.50 156.20 11.98L156.20 11.98L157.23 10.61ZM163.17 10.96L163.17 10.96Q163.93 10.96 164.43 11.37L164.43 11.37L164.43 11.37Q164.93 11.77 164.93 12.57L164.93 12.57L164.93 12.57Q164.93 13.22 164.24 14.01L164.24 14.01L164.24 14.01Q163.55 14.80 162.62 15.46L162.62 15.46L162.62 15.46Q161.69 16.11 161.03 16.38L161.03 16.38L161.03 16.38Q161.38 16.94 161.83 17.16L161.83 17.16L161.83 17.16Q162.27 17.37 162.88 17.37L162.88 17.37L162.88 17.37Q163.55 17.37 164.21 17.03L164.21 17.03L164.21 17.03Q164.88 16.69 165.31 16.14L165.31 16.14L165.48 16.44L165.48 16.44Q164.79 17.32 164.02 17.79L164.02 17.79L164.02 17.79Q163.25 18.26 162.13 18.26L162.13 18.26L162.13 18.26Q161.28 18.26 160.61 17.84L160.61 17.84L160.61 17.84Q159.94 17.42 159.56 16.71L159.56 16.71L159.56 16.71Q159.18 16.00 159.18 15.18L159.18 15.18L159.18 15.18Q159.18 14.14 159.74 13.16L159.74 13.16L159.74 13.16Q160.30 12.18 161.22 11.57L161.22 11.57L161.22 11.57Q162.15 10.96 163.17 10.96L163.17 10.96ZM162.44 11.84L162.44 11.84Q161.83 11.84 161.34 12.24L161.34 12.24L161.34 12.24Q160.86 12.63 160.59 13.24L160.59 13.24L160.59 13.24Q160.31 13.86 160.31 14.52L160.31 14.52L160.31 14.52Q160.31 15.39 160.72 16.00L160.72 16.00L160.72 16.00Q161.31 15.74 161.99 15.20L161.99 15.20L161.99 15.20Q162.68 14.66 163.16 14.03L163.16 14.03L163.16 14.03Q163.63 13.40 163.63 12.88L163.63 12.88L163.63 12.88Q163.63 11.84 162.44 11.84L162.44 11.84ZM169.72 12.80L169.72 12.80Q169.09 13.45 168.64 14.51L168.64 14.51L168.64 14.51Q168.18 15.57 168.18 16.44L168.18 16.44L168.18 16.44Q168.18 17.19 168.51 17.70L168.51 17.70L168.51 17.70Q168.84 18.21 169.57 18.21L169.57 18.21L169.57 18.21Q170.16 18.21 170.69 17.91L170.69 17.91L170.69 17.91Q171.23 17.60 171.61 17.11L171.61 17.11L171.46 16.90L171.46 16.90Q171.02 17.19 170.60 17.19L170.60 17.19L170.60 17.19Q169.95 17.19 169.61 16.73L169.61 16.73L169.61 16.73Q169.27 16.27 169.27 15.61L169.27 15.61L169.27 15.61Q169.27 14.55 169.82 13.59L169.82 13.59L169.82 13.59Q170.37 12.64 171.21 11.75L171.21 11.75L170.98 11.55L170.98 11.55Q170.00 12.17 169.19 12.17L169.19 12.17L169.19 12.17Q168.71 12.17 168.32 11.74L168.32 11.74L168.32 11.74Q167.93 11.31 167.72 10.79L167.72 10.79L166.59 12.07L166.59 12.07Q166.68 12.35 167.12 12.71L167.12 12.71L166.18 14.67L166.70 14.91L167.61 12.91L167.61 12.91Q167.85 13.01 168 13.03L168 13.03L168 13.03Q168.15 13.06 168.42 13.06L168.42 13.06L168.42 13.06Q169.11 13.06 169.68 12.75L169.68 12.75L169.72 12.80ZM178.79 10.89L178.79 17.33L178.79 17.33Q178.79 18.65 178.27 19.80L178.27 19.80L178.27 19.80Q177.74 20.94 176.88 21.63L176.88 21.63L176.88 21.63Q176.01 22.32 175.03 22.32L175.03 22.32L175.03 22.32Q174.65 22.32 174.31 22.20L174.31 22.20L174.31 22.20Q173.98 22.09 173.61 21.83L173.61 21.83L174.59 20.58L174.59 20.58Q174.89 20.87 175.29 21.06L175.29 21.06L175.29 21.06Q175.69 21.24 176.04 21.24L176.04 21.24L176.04 21.24Q176.47 21.24 176.82 20.72L176.82 20.72L176.82 20.72Q177.17 20.20 177.37 19.29L177.37 19.29L177.37 19.29Q177.58 18.38 177.58 17.23L177.58 17.23L177.58 17.23Q177.58 14.63 177.59 13.89L177.59 13.89L177.59 13.05L177.51 13.05L177.51 13.05Q176.36 18.26 174.52 18.26L174.52 18.26L174.52 18.26Q174.12 18.26 173.92 18.10L173.92 18.10L173.92 18.10Q173.73 17.93 173.66 17.51L173.66 17.51L173.66 17.51Q173.59 17.09 173.59 16.24L173.59 16.24L173.59 12.29L173.59 12.29Q173.59 12.07 173.47 11.91L173.47 11.91L173.47 11.91Q173.36 11.76 173.19 11.76L173.19 11.76L173.19 11.76Q172.84 11.76 172.45 12.33L172.45 12.33L172.23 12.11L172.23 12.11Q172.54 11.45 172.84 11.21L172.84 11.21L172.84 11.21Q173.14 10.98 173.71 10.98L173.71 10.98L173.71 10.98Q174.27 10.98 174.55 11.33L174.55 11.33L174.55 11.33Q174.83 11.69 174.83 12.38L174.83 12.38L174.83 16.20L174.83 16.20Q174.83 16.72 175.13 16.72L175.13 16.72L175.13 16.72Q175.48 16.72 176.02 15.76L176.02 15.76L176.02 15.76Q176.57 14.81 176.99 13.56L176.99 13.56L176.99 13.56Q177.41 12.31 177.41 11.52L177.41 11.52L178.79 10.89ZM187.18 7.90L187.18 7.90Q188.12 7.90 188.96 8.32L188.96 8.32L188.96 8.32Q189.80 8.75 190.37 9.53L190.37 9.53L189.28 10.88L189.28 10.88Q188.93 9.90 188.24 9.25L188.24 9.25L188.24 9.25Q187.54 8.61 186.59 8.61L186.59 8.61L186.59 8.61Q185.68 8.61 185.18 9.13L185.18 9.13L185.18 9.13Q184.67 9.65 184.67 10.46L184.67 10.46L184.67 10.46Q184.67 11.21 185.04 11.72L185.04 11.72L185.04 11.72Q185.40 12.22 185.92 12.53L185.92 12.53L185.92 12.53Q186.44 12.84 187.32 13.23L187.32 13.23L187.32 13.23Q188.16 13.61 188.64 13.89L188.64 13.89L188.64 13.89Q189.13 14.17 189.46 14.62L189.46 14.62L189.46 14.62Q189.80 15.06 189.80 15.72L189.80 15.72L189.80 15.72Q189.81 16.94 189.01 17.60L189.01 17.60L189.01 17.60Q188.22 18.26 186.94 18.26L186.94 18.26L186.94 18.26Q186.00 18.26 185.16 17.89L185.16 17.89L185.16 17.89Q184.31 17.51 183.81 16.76L183.81 16.76L184.90 15.54L184.90 15.54Q185.37 16.66 186.06 17.13L186.06 17.13L186.06 17.13Q186.75 17.60 187.39 17.60L187.39 17.60L187.39 17.60Q187.99 17.60 188.42 17.27L188.42 17.27L188.42 17.27Q188.85 16.94 188.85 16.41L188.85 16.41L188.85 16.41Q188.85 15.92 188.54 15.55L188.54 15.55L188.54 15.55Q188.24 15.18 187.80 14.92L187.80 14.92L187.80 14.92Q187.35 14.66 186.58 14.31L186.58 14.31L186.58 14.31Q185.60 13.86 185.01 13.50L185.01 13.50L185.01 13.50Q184.42 13.13 184.00 12.54L184.00 12.54L184.00 12.54Q183.58 11.94 183.58 11.09L183.58 11.09L183.58 11.09Q183.58 10.19 184.05 9.46L184.05 9.46L184.05 9.46Q184.52 8.72 185.35 8.31L185.35 8.31L185.35 8.31Q186.17 7.90 187.18 7.90L187.18 7.90ZM195.09 10.96L195.09 10.96Q195.85 10.96 196.35 11.37L196.35 11.37L196.35 11.37Q196.85 11.77 196.85 12.57L196.85 12.57L196.85 12.57Q196.85 13.22 196.16 14.01L196.16 14.01L196.16 14.01Q195.47 14.80 194.54 15.46L194.54 15.46L194.54 15.46Q193.61 16.11 192.95 16.38L192.95 16.38L192.95 16.38Q193.30 16.94 193.75 17.16L193.75 17.16L193.75 17.16Q194.19 17.37 194.80 17.37L194.80 17.37L194.80 17.37Q195.47 17.37 196.13 17.03L196.13 17.03L196.13 17.03Q196.80 16.69 197.23 16.14L197.23 16.14L197.40 16.44L197.40 16.44Q196.71 17.32 195.94 17.79L195.94 17.79L195.94 17.79Q195.17 18.26 194.05 18.26L194.05 18.26L194.05 18.26Q193.20 18.26 192.53 17.84L192.53 17.84L192.53 17.84Q191.86 17.42 191.48 16.71L191.48 16.71L191.48 16.71Q191.10 16.00 191.10 15.18L191.10 15.18L191.10 15.18Q191.10 14.14 191.66 13.16L191.66 13.16L191.66 13.16Q192.22 12.18 193.14 11.57L193.14 11.57L193.14 11.57Q194.07 10.96 195.09 10.96L195.09 10.96ZM194.36 11.84L194.36 11.84Q193.75 11.84 193.26 12.24L193.26 12.24L193.26 12.24Q192.78 12.63 192.51 13.24L192.51 13.24L192.51 13.24Q192.23 13.86 192.23 14.52L192.23 14.52L192.23 14.52Q192.23 15.39 192.64 16.00L192.64 16.00L192.64 16.00Q193.23 15.74 193.91 15.20L193.91 15.20L193.91 15.20Q194.60 14.66 195.08 14.03L195.08 14.03L195.08 14.03Q195.55 13.40 195.55 12.88L195.55 12.88L195.55 12.88Q195.55 11.84 194.36 11.84L194.36 11.84ZM201.64 12.80L201.64 12.80Q201.01 13.45 200.56 14.51L200.56 14.51L200.56 14.51Q200.10 15.57 200.10 16.44L200.10 16.44L200.10 16.44Q200.10 17.19 200.43 17.70L200.43 17.70L200.43 17.70Q200.76 18.21 201.49 18.21L201.49 18.21L201.49 18.21Q202.08 18.21 202.61 17.91L202.61 17.91L202.61 17.91Q203.15 17.60 203.53 17.11L203.53 17.11L203.38 16.90L203.38 16.90Q202.94 17.19 202.52 17.19L202.52 17.19L202.52 17.19Q201.87 17.19 201.53 16.73L201.53 16.73L201.53 16.73Q201.19 16.27 201.19 15.61L201.19 15.61L201.19 15.61Q201.19 14.55 201.74 13.59L201.74 13.59L201.74 13.59Q202.29 12.64 203.13 11.75L203.13 11.75L202.90 11.55L202.90 11.55Q201.92 12.17 201.11 12.17L201.11 12.17L201.11 12.17Q200.63 12.17 200.24 11.74L200.24 11.74L200.24 11.74Q199.85 11.31 199.64 10.79L199.64 10.79L198.51 12.07L198.51 12.07Q198.60 12.35 199.04 12.71L199.04 12.71L198.10 14.67L198.62 14.91L199.53 12.91L199.53 12.91Q199.77 13.01 199.92 13.03L199.92 13.03L199.92 13.03Q200.07 13.06 200.34 13.06L200.34 13.06L200.34 13.06Q201.03 13.06 201.60 12.75L201.60 12.75L201.64 12.80ZM209.78 10.61L209.78 10.61Q210.34 10.79 210.64 11.21L210.64 11.21L210.64 11.21Q210.95 11.63 210.95 12.18L210.95 12.18L210.95 12.18Q210.95 12.47 210.88 12.82L210.88 12.82L210.88 12.82Q210.80 13.17 210.67 13.43L210.67 13.43L208.24 18.24L208.24 18.24Q208.21 18.27 208.12 18.30L208.12 18.30L208.12 18.30Q208.03 18.33 207.96 18.33L207.96 18.33L207.96 18.33Q207.84 18.33 207.74 18.28L207.74 18.28L207.74 18.28Q207.63 18.24 207.62 18.20L207.62 18.20L205.20 12.91L205.20 12.91Q204.85 12.26 204.47 12.26L204.47 12.26L204.47 12.26Q204.33 12.26 204.21 12.36L204.21 12.36L204.21 12.36Q204.09 12.45 204.05 12.47L204.05 12.47L203.92 12.32L203.92 12.32Q204.09 11.79 204.55 11.44L204.55 11.44L204.55 11.44Q205.00 11.09 205.46 11.09L205.46 11.09L205.46 11.09Q205.73 11.09 205.93 11.44L205.93 11.44L205.93 11.44Q206.14 11.79 206.26 12.12L206.26 12.12L206.26 12.12Q206.39 12.45 206.43 12.54L206.43 12.54L208.39 16.90L209.64 14.36L209.64 14.36Q209.65 14.32 209.75 14.06L209.75 14.06L209.75 14.06Q209.86 13.79 209.86 13.54L209.86 13.54L209.86 13.54Q209.86 12.50 208.74 11.98L208.74 11.98L209.78 10.61ZM213.71 6.41L213.23 9.67L212.77 9.84L212.20 6.93L213.71 6.41ZM213.70 11.14L213.70 16.91L213.70 16.91Q213.70 17.12 213.80 17.26L213.80 17.26L213.80 17.26Q213.91 17.39 214.10 17.39L214.10 17.39L214.10 17.39Q214.26 17.39 214.44 17.25L214.44 17.25L214.44 17.25Q214.63 17.11 214.83 16.84L214.83 16.84L215.05 17.05L215.05 17.05Q214.73 17.65 214.28 17.91L214.28 17.91L214.28 17.91Q213.82 18.16 213.44 18.16L213.44 18.16L213.44 18.16Q212.94 18.16 212.67 17.84L212.67 17.84L212.67 17.84Q212.39 17.51 212.39 16.74L212.39 16.74L212.39 11.65L213.70 11.14ZM219.86 11.00L219.86 11.00Q220.43 11.00 220.92 11.33L220.92 11.33L220.92 11.33Q221.41 11.65 221.69 12.35L221.69 12.35L220.54 12.94L220.54 12.94Q220.40 12.45 219.99 12.17L219.99 12.17L219.99 12.17Q219.58 11.89 219.11 11.89L219.11 11.89L219.11 11.89Q218.44 11.89 217.92 12.24L217.92 12.24L217.92 12.24Q217.41 12.59 217.13 13.13L217.13 13.13L217.13 13.13Q216.85 13.68 216.85 14.24L216.85 14.24L216.85 14.24Q216.85 15.22 217.17 15.93L217.17 15.93L217.17 15.93Q217.49 16.63 218.05 17.00L218.05 17.00L218.05 17.00Q218.61 17.37 219.31 17.37L219.31 17.37L219.31 17.37Q220.15 17.37 220.78 16.96L220.78 16.96L220.78 16.96Q221.41 16.55 221.97 15.90L221.97 15.90L222.21 16.13L222.21 16.13Q221.52 17.18 220.76 17.72L220.76 17.72L220.76 17.72Q220.00 18.26 218.89 18.26L218.89 18.26L218.89 18.26Q218.02 18.26 217.34 17.85L217.34 17.85L217.34 17.85Q216.65 17.44 216.26 16.70L216.26 16.70L216.26 16.70Q215.87 15.95 215.87 14.97L215.87 14.97L215.87 14.97Q215.87 13.87 216.31 12.97L216.31 12.97L216.31 12.97Q216.76 12.07 217.66 11.54L217.66 11.54L217.66 11.54Q218.55 11.00 219.86 11.00L219.86 11.00ZM227.19 10.96L227.19 10.96Q227.95 10.96 228.45 11.37L228.45 11.37L228.45 11.37Q228.96 11.77 228.96 12.57L228.96 12.57L228.96 12.57Q228.96 13.22 228.26 14.01L228.26 14.01L228.26 14.01Q227.57 14.80 226.64 15.46L226.64 15.46L226.64 15.46Q225.71 16.11 225.05 16.38L225.05 16.38L225.05 16.38Q225.40 16.94 225.85 17.16L225.85 17.16L225.85 17.16Q226.30 17.37 226.90 17.37L226.90 17.37L226.90 17.37Q227.57 17.37 228.24 17.03L228.24 17.03L228.24 17.03Q228.90 16.69 229.33 16.14L229.33 16.14L229.50 16.44L229.50 16.44Q228.82 17.32 228.05 17.79L228.05 17.79L228.05 17.79Q227.28 18.26 226.16 18.26L226.16 18.26L226.16 18.26Q225.30 18.26 224.63 17.84L224.63 17.84L224.63 17.84Q223.96 17.42 223.58 16.71L223.58 16.71L223.58 16.71Q223.20 16.00 223.20 15.18L223.20 15.18L223.20 15.18Q223.20 14.14 223.76 13.16L223.76 13.16L223.76 13.16Q224.32 12.18 225.25 11.57L225.25 11.57L225.25 11.57Q226.17 10.96 227.19 10.96L227.19 10.96ZM226.46 11.84L226.46 11.84Q225.85 11.84 225.37 12.24L225.37 12.24L225.37 12.24Q224.88 12.63 224.61 13.24L224.61 13.24L224.61 13.24Q224.34 13.86 224.34 14.52L224.34 14.52L224.34 14.52Q224.34 15.39 224.74 16.00L224.74 16.00L224.74 16.00Q225.33 15.74 226.02 15.20L226.02 15.20L226.02 15.20Q226.70 14.66 227.18 14.03L227.18 14.03L227.18 14.03Q227.65 13.40 227.65 12.88L227.65 12.88L227.65 12.88Q227.65 11.84 226.46 11.84L226.46 11.84Z"></path></g></svg>