<svg data-v-423bf9ae="" xmlns="http://www.w3.org/2000/svg" viewBox="0 0 2101.827971369333 193" class="fontAboveSlogan"><!----><!----><!----><g data-v-423bf9ae="" id="d4c7a37c-3004-4c83-bbc3-af5ee8bb59a1" fill="#0C203C" transform="matrix(7.542426219414388,0,0,7.542426219414388,807.0679455084068,-47.93695297549985)"><path d="M9.58 7.21L9.58 7.21Q10.11 7.60 10.40 8.20L10.40 8.20L10.40 8.20Q10.70 8.81 10.70 9.42L10.70 9.42L10.70 9.42Q10.70 9.95 10.54 10.56L10.54 10.56L10.54 10.56Q10.37 11.17 10.12 11.75L10.12 11.75L7.21 18.42L5.40 13.57L3.61 18.42L-0.01 8.61L1.32 8.12L3.99 15.57L5.08 12.67L3.81 9.25L5.17 8.75L7.67 15.83L9.10 12.60L9.10 12.60Q9.34 12.01 9.48 11.53L9.48 11.53L9.48 11.53Q9.62 11.05 9.62 10.67L9.62 10.67L9.62 10.67Q9.62 9.41 8.43 8.44L8.43 8.44L9.58 7.21ZM13.99 10.96L14.24 11.26L14.24 11.26Q13.19 11.93 12.59 12.75L12.59 12.75L12.59 12.75Q11.98 13.58 11.98 14.70L11.98 14.70L11.98 14.70Q11.98 15.33 12.25 15.97L12.25 15.97L12.25 15.97Q12.52 16.60 13.05 17.02L13.05 17.02L13.05 17.02Q13.58 17.44 14.32 17.44L14.32 17.44L14.32 17.44Q14.92 17.44 15.39 17.16L15.39 17.16L15.39 17.16Q15.86 16.88 16.12 16.41L16.12 16.41L16.12 16.41Q16.38 15.93 16.38 15.36L16.38 15.36L16.38 15.36Q16.38 14.70 15.98 14.01L15.98 14.01L15.98 14.01Q15.58 13.33 14.94 12.85L14.94 12.85L14.94 12.85Q14.29 12.38 13.62 12.32L13.62 12.32L13.62 12.32Q13.90 12.04 14.29 11.73L14.29 11.73L14.29 11.73Q14.69 11.42 15.09 11.13L15.09 11.13L15.09 11.13Q16.06 11.45 16.62 12.36L16.62 12.36L16.62 12.36Q17.18 13.26 17.18 14.36L17.18 14.36L17.18 14.36Q17.18 15.34 16.78 16.25L16.78 16.25L16.78 16.25Q16.38 17.15 15.61 17.72L15.61 17.72L15.61 17.72Q14.84 18.28 13.79 18.28L13.79 18.28L13.79 18.28Q12.95 18.28 12.24 17.87L12.24 17.87L12.24 17.87Q11.54 17.46 11.13 16.74L11.13 16.74L11.13 16.74Q10.72 16.03 10.72 15.16L10.72 15.16L10.72 15.16Q10.72 13.64 11.63 12.52L11.63 12.52L11.63 12.52Q12.53 11.40 13.99 10.96L13.99 10.96ZM21.69 10.96L21.94 11.26L21.94 11.26Q20.89 11.93 20.29 12.75L20.29 12.75L20.29 12.75Q19.68 13.58 19.68 14.70L19.68 14.70L19.68 14.70Q19.68 15.33 19.95 15.97L19.95 15.97L19.95 15.97Q20.22 16.60 20.75 17.02L20.75 17.02L20.75 17.02Q21.28 17.44 22.02 17.44L22.02 17.44L22.02 17.44Q22.62 17.44 23.09 17.16L23.09 17.16L23.09 17.16Q23.56 16.88 23.82 16.41L23.82 16.41L23.82 16.41Q24.08 15.93 24.08 15.36L24.08 15.36L24.08 15.36Q24.08 14.70 23.68 14.01L23.68 14.01L23.68 14.01Q23.28 13.33 22.64 12.85L22.64 12.85L22.64 12.85Q21.99 12.38 21.32 12.32L21.32 12.32L21.32 12.32Q21.60 12.04 21.99 11.73L21.99 11.73L21.99 11.73Q22.39 11.42 22.79 11.13L22.79 11.13L22.79 11.13Q23.76 11.45 24.32 12.36L24.32 12.36L24.32 12.36Q24.88 13.26 24.88 14.36L24.88 14.36L24.88 14.36Q24.88 15.34 24.48 16.25L24.48 16.25L24.48 16.25Q24.08 17.15 23.31 17.72L23.31 17.72L23.31 17.72Q22.54 18.28 21.49 18.28L21.49 18.28L21.49 18.28Q20.65 18.28 19.94 17.87L19.94 17.87L19.94 17.87Q19.24 17.46 18.83 16.74L18.83 16.74L18.83 16.74Q18.42 16.03 18.42 15.16L18.42 15.16L18.42 15.16Q18.42 13.64 19.33 12.52L19.33 12.52L19.33 12.52Q20.23 11.40 21.69 10.96L21.69 10.96ZM30.91 7.87L30.91 7.87Q31.67 7.87 32.14 8.23L32.14 8.23L32.14 8.23Q32.61 8.60 32.61 9.23L32.61 9.23L32.61 9.23Q32.61 9.79 32.16 10.35L32.16 10.35L32.16 10.35Q31.72 10.91 31.02 11.30L31.02 11.30L31.02 11.30Q30.31 11.69 29.55 11.79L29.55 11.79L29.43 11.52L29.43 11.52Q30.18 11.28 30.69 10.74L30.69 10.74L30.69 10.74Q31.19 10.19 31.19 9.59L31.19 9.59L31.19 9.59Q31.19 9.14 30.91 8.90L30.91 8.90L30.91 8.90Q30.62 8.65 30.14 8.65L30.14 8.65L30.14 8.65Q28.99 8.65 28.43 9.44L28.43 9.44L28.43 9.44Q27.87 10.23 27.87 11.33L27.87 11.33L27.87 15.67L27.87 15.67Q27.87 16.10 27.74 16.41L27.74 16.41L27.74 16.41Q27.61 16.73 27.33 17.07L27.33 17.07L27.40 17.11L27.40 17.11Q27.73 16.86 28.04 16.73L28.04 16.73L28.04 16.73Q28.35 16.60 28.76 16.60L28.76 16.60L28.76 16.60Q29.32 16.60 29.93 16.70L29.93 16.70L29.93 16.70Q30.02 16.72 30.37 16.76L30.37 16.76L30.37 16.76Q30.72 16.80 31.12 16.80L31.12 16.80L31.12 16.80Q31.60 16.80 32.02 16.55L32.02 16.55L32.02 16.55Q32.44 16.30 32.73 15.90L32.73 15.90L32.98 16.07L31.95 18.24L31.95 18.24Q31.29 18.17 30.44 17.98L30.44 17.98L30.44 17.98Q29.58 17.81 29.04 17.73L29.04 17.73L29.04 17.73Q28.50 17.65 27.87 17.65L27.87 17.65L27.87 17.65Q27.47 17.65 27.01 17.79L27.01 17.79L27.01 17.79Q26.54 17.93 26.19 18.20L26.19 18.20L25.87 17.93L25.87 17.93Q26.57 17.39 26.57 16.42L26.57 16.42L26.57 12.47L26.57 12.47Q26.57 11.19 27.12 10.14L27.12 10.14L27.12 10.14Q27.66 9.09 28.65 8.48L28.65 8.48L28.65 8.48Q29.64 7.87 30.91 7.87L30.91 7.87ZM35.71 6.41L35.24 9.67L34.78 9.84L34.20 6.93L35.71 6.41ZM35.70 11.14L35.70 16.91L35.70 16.91Q35.70 17.12 35.80 17.26L35.80 17.26L35.80 17.26Q35.91 17.39 36.11 17.39L36.11 17.39L36.11 17.39Q36.26 17.39 36.45 17.25L36.45 17.25L36.45 17.25Q36.64 17.11 36.83 16.84L36.83 16.84L37.06 17.05L37.06 17.05Q36.74 17.65 36.28 17.91L36.28 17.91L36.28 17.91Q35.83 18.16 35.45 18.16L35.45 18.16L35.45 18.16Q34.94 18.16 34.67 17.84L34.67 17.84L34.67 17.84Q34.40 17.51 34.40 16.74L34.40 16.74L34.40 11.65L35.70 11.14ZM43.13 10.61L43.13 10.61Q43.69 10.79 44.00 11.21L44.00 11.21L44.00 11.21Q44.31 11.63 44.31 12.18L44.31 12.18L44.31 12.18Q44.31 12.47 44.23 12.82L44.23 12.82L44.23 12.82Q44.16 13.17 44.03 13.43L44.03 13.43L41.59 18.24L41.59 18.24Q41.57 18.27 41.48 18.30L41.48 18.30L41.48 18.30Q41.38 18.33 41.31 18.33L41.31 18.33L41.31 18.33Q41.20 18.33 41.10 18.28L41.10 18.28L41.10 18.28Q40.99 18.24 40.98 18.20L40.98 18.20L38.56 12.91L38.56 12.91Q38.21 12.26 37.83 12.26L37.83 12.26L37.83 12.26Q37.69 12.26 37.57 12.36L37.57 12.36L37.57 12.36Q37.45 12.45 37.41 12.47L37.41 12.47L37.28 12.32L37.28 12.32Q37.45 11.79 37.91 11.44L37.91 11.44L37.91 11.44Q38.36 11.09 38.82 11.09L38.82 11.09L38.82 11.09Q39.09 11.09 39.29 11.44L39.29 11.44L39.29 11.44Q39.49 11.79 39.62 12.12L39.62 12.12L39.62 12.12Q39.75 12.45 39.79 12.54L39.79 12.54L41.75 16.90L42.99 14.36L42.99 14.36Q43.01 14.32 43.11 14.06L43.11 14.06L43.11 14.06Q43.22 13.79 43.22 13.54L43.22 13.54L43.22 13.54Q43.22 12.50 42.10 11.98L42.10 11.98L43.13 10.61ZM49.07 10.96L49.07 10.96Q49.83 10.96 50.33 11.37L50.33 11.37L50.33 11.37Q50.83 11.77 50.83 12.57L50.83 12.57L50.83 12.57Q50.83 13.22 50.14 14.01L50.14 14.01L50.14 14.01Q49.45 14.80 48.52 15.46L48.52 15.46L48.52 15.46Q47.59 16.11 46.93 16.38L46.93 16.38L46.93 16.38Q47.28 16.94 47.73 17.16L47.73 17.16L47.73 17.16Q48.17 17.37 48.78 17.37L48.78 17.37L48.78 17.37Q49.45 17.37 50.11 17.03L50.11 17.03L50.11 17.03Q50.78 16.69 51.21 16.14L51.21 16.14L51.38 16.44L51.38 16.44Q50.69 17.32 49.92 17.79L49.92 17.79L49.92 17.79Q49.15 18.26 48.03 18.26L48.03 18.26L48.03 18.26Q47.18 18.26 46.51 17.84L46.51 17.84L46.51 17.84Q45.84 17.42 45.46 16.71L45.46 16.71L45.46 16.71Q45.08 16.00 45.08 15.18L45.08 15.18L45.08 15.18Q45.08 14.14 45.64 13.16L45.64 13.16L45.64 13.16Q46.20 12.18 47.12 11.57L47.12 11.57L47.12 11.57Q48.05 10.96 49.07 10.96L49.07 10.96ZM48.34 11.84L48.34 11.84Q47.73 11.84 47.24 12.24L47.24 12.24L47.24 12.24Q46.76 12.63 46.49 13.24L46.49 13.24L46.49 13.24Q46.21 13.86 46.21 14.52L46.21 14.52L46.21 14.52Q46.21 15.39 46.62 16.00L46.62 16.00L46.62 16.00Q47.21 15.74 47.89 15.20L47.89 15.20L47.89 15.20Q48.58 14.66 49.06 14.03L49.06 14.03L49.06 14.03Q49.53 13.40 49.53 12.88L49.53 12.88L49.53 12.88Q49.53 11.84 48.34 11.84L48.34 11.84ZM55.62 12.80L55.62 12.80Q54.99 13.45 54.54 14.51L54.54 14.51L54.54 14.51Q54.08 15.57 54.08 16.44L54.08 16.44L54.08 16.44Q54.08 17.19 54.41 17.70L54.41 17.70L54.41 17.70Q54.74 18.21 55.47 18.21L55.47 18.21L55.47 18.21Q56.06 18.21 56.59 17.91L56.59 17.91L56.59 17.91Q57.13 17.60 57.51 17.11L57.51 17.11L57.36 16.90L57.36 16.90Q56.92 17.19 56.50 17.19L56.50 17.19L56.50 17.19Q55.85 17.19 55.51 16.73L55.51 16.73L55.51 16.73Q55.17 16.27 55.17 15.61L55.17 15.61L55.17 15.61Q55.17 14.55 55.72 13.59L55.72 13.59L55.72 13.59Q56.27 12.64 57.11 11.75L57.11 11.75L56.88 11.55L56.88 11.55Q55.90 12.17 55.09 12.17L55.09 12.17L55.09 12.17Q54.61 12.17 54.22 11.74L54.22 11.74L54.22 11.74Q53.83 11.31 53.62 10.79L53.62 10.79L52.49 12.07L52.49 12.07Q52.58 12.35 53.02 12.71L53.02 12.71L52.08 14.67L52.60 14.91L53.51 12.91L53.51 12.91Q53.75 13.01 53.90 13.03L53.90 13.03L53.90 13.03Q54.05 13.06 54.32 13.06L54.32 13.06L54.32 13.06Q55.01 13.06 55.58 12.75L55.58 12.75L55.62 12.80ZM64.69 10.89L64.69 17.33L64.69 17.33Q64.69 18.65 64.17 19.80L64.17 19.80L64.17 19.80Q63.64 20.94 62.78 21.63L62.78 21.63L62.78 21.63Q61.91 22.32 60.93 22.32L60.93 22.32L60.93 22.32Q60.55 22.32 60.21 22.20L60.21 22.20L60.21 22.20Q59.88 22.09 59.51 21.83L59.51 21.83L60.49 20.58L60.49 20.58Q60.79 20.87 61.19 21.06L61.19 21.06L61.19 21.06Q61.59 21.24 61.94 21.24L61.94 21.24L61.94 21.24Q62.37 21.24 62.72 20.72L62.72 20.72L62.72 20.72Q63.07 20.20 63.27 19.29L63.27 19.29L63.27 19.29Q63.48 18.38 63.48 17.23L63.48 17.23L63.48 17.23Q63.48 14.63 63.49 13.89L63.49 13.89L63.49 13.05L63.41 13.05L63.41 13.05Q62.26 18.26 60.42 18.26L60.42 18.26L60.42 18.26Q60.02 18.26 59.82 18.10L59.82 18.10L59.82 18.10Q59.63 17.93 59.56 17.51L59.56 17.51L59.56 17.51Q59.49 17.09 59.49 16.24L59.49 16.24L59.49 12.29L59.49 12.29Q59.49 12.07 59.37 11.91L59.37 11.91L59.37 11.91Q59.26 11.76 59.09 11.76L59.09 11.76L59.09 11.76Q58.74 11.76 58.35 12.33L58.35 12.33L58.13 12.11L58.13 12.11Q58.44 11.45 58.74 11.21L58.74 11.21L58.74 11.21Q59.04 10.98 59.61 10.98L59.61 10.98L59.61 10.98Q60.17 10.98 60.45 11.33L60.45 11.33L60.45 11.33Q60.73 11.69 60.73 12.38L60.73 12.38L60.73 16.20L60.73 16.20Q60.73 16.72 61.03 16.72L61.03 16.72L61.03 16.72Q61.38 16.72 61.92 15.76L61.92 15.76L61.92 15.76Q62.47 14.81 62.89 13.56L62.89 13.56L62.89 13.56Q63.31 12.31 63.31 11.52L63.31 11.52L64.69 10.89Z"></path></g><!----><!----><g data-v-423bf9ae="" id="891f46d2-40c7-4a96-adde-30656f55e498" fill="#0C203C" transform="matrix(6.302521336710863,0,0,6.302521336710863,-9.201672287563042,110.05882763367615)"><path d="M4.37 3.78L4.37 3.78Q6.58 3.78 7.78 4.95L7.78 4.95L7.78 4.95Q8.97 6.12 8.97 8.33L8.97 8.33L8.97 8.33Q8.97 10.60 7.78 11.81L7.78 11.81L7.78 11.81Q6.58 13.02 4.37 13.02L4.37 13.02L1.46 13.02L1.46 3.78L4.37 3.78ZM4.42 12.38L4.42 12.38Q6.27 12.38 7.26 11.33L7.26 11.33L7.26 11.33Q8.25 10.29 8.25 8.33L8.25 8.33L8.25 8.33Q8.25 6.45 7.26 5.44L7.26 5.44L7.26 5.44Q6.27 4.42 4.42 4.42L4.42 4.42L2.16 4.42L2.16 12.38L4.42 12.38ZM19.01 12.38L24.85 12.38L24.85 13.02L18.31 13.02L18.31 3.78L24.63 3.78L24.63 4.42L19.01 4.42L19.01 7.99L23.45 7.99L23.45 8.65L19.01 8.65L19.01 12.38ZM34.58 12.38L40.12 12.38L40.12 13.02L33.88 13.02L33.88 3.78L34.58 3.78L34.58 12.38ZM49.59 3.78L49.59 13.02L48.89 13.02L48.89 3.78L49.59 3.78ZM66.32 3.78L62.76 13.02L61.94 13.02L58.37 3.78L59.12 3.78L61.85 10.93L62.34 12.36L62.83 10.93L65.58 3.78L66.32 3.78ZM75.80 12.38L81.63 12.38L81.63 13.02L75.10 13.02L75.10 3.78L81.41 3.78L81.41 4.42L75.80 4.42L75.80 7.99L80.23 7.99L80.23 8.65L75.80 8.65L75.80 12.38ZM97.61 13.02L96.78 13.02L94.14 9.02L94.09 9.02L91.36 9.02L91.36 13.02L90.66 13.02L90.66 3.78L94.09 3.78L94.09 3.78Q95.48 3.78 96.30 4.48L96.30 4.48L96.30 4.48Q97.12 5.18 97.12 6.40L97.12 6.40L97.12 6.40Q97.12 7.41 96.53 8.07L96.53 8.07L96.53 8.07Q95.94 8.74 94.92 8.93L94.92 8.93L97.61 13.02ZM91.36 4.42L91.36 8.36L94.08 8.36L94.08 8.36Q95.20 8.36 95.80 7.85L95.80 7.85L95.80 7.85Q96.39 7.35 96.39 6.40L96.39 6.40L96.39 6.40Q96.39 5.45 95.80 4.93L95.80 4.93L95.80 4.93Q95.20 4.42 94.08 4.42L94.08 4.42L91.36 4.42ZM112.32 3.78L109.05 9.42L109.05 13.02L108.35 13.02L108.35 9.42L105.07 3.78L105.90 3.78L108.70 8.69L111.50 3.78L112.32 3.78ZM136.40 6.54L134.54 13.02L133.67 13.02L130.79 3.78L131.54 3.78L134.11 12.45L136.53 3.78L137.34 3.78L139.76 12.46L142.35 3.78L143.07 3.78L140.18 13.02L139.31 13.02L137.45 6.54L136.93 4.54L136.92 4.54L136.40 6.54ZM152.64 3.78L152.64 13.02L151.94 13.02L151.94 3.78L152.64 3.78ZM168.85 3.78L168.85 4.42L165.48 4.42L165.48 13.02L164.78 13.02L164.78 4.42L161.41 4.42L161.41 3.78L168.85 3.78ZM184.03 3.78L184.73 3.78L184.73 13.02L184.03 13.02L184.03 8.65L178.32 8.65L178.32 13.02L177.62 13.02L177.62 3.78L178.32 3.78L178.32 7.99L184.03 7.99L184.03 3.78ZM211.88 13.02L210.71 10.12L206.29 10.12L205.14 13.02L204.40 13.02L208.10 3.78L208.92 3.78L212.62 13.02L211.88 13.02ZM206.56 9.48L210.46 9.48L208.85 5.45L208.52 4.47L208.50 4.47L208.17 5.42L206.56 9.48ZM235.35 3.78L235.35 3.78Q236.80 3.78 237.64 4.50L237.64 4.50L237.64 4.50Q238.49 5.22 238.49 6.48L238.49 6.48L238.49 6.48Q238.49 7.74 237.64 8.47L237.64 8.47L237.64 8.47Q236.80 9.20 235.35 9.20L235.35 9.20L232.99 9.20L232.99 13.02L232.29 13.02L232.29 3.78L235.35 3.78ZM235.27 8.54L235.27 8.54Q236.47 8.54 237.11 8.01L237.11 8.01L237.11 8.01Q237.75 7.48 237.75 6.48L237.75 6.48L237.75 6.48Q237.75 5.50 237.11 4.96L237.11 4.96L237.11 4.96Q236.47 4.42 235.27 4.42L235.27 4.42L232.99 4.42L232.99 8.54L235.27 8.54ZM254.52 3.78L254.52 9.65L254.52 9.65Q254.52 11.35 253.60 12.26L253.60 12.26L253.60 12.26Q252.67 13.16 250.96 13.16L250.96 13.16L250.96 13.16Q249.26 13.16 248.32 12.26L248.32 12.26L248.32 12.26Q247.39 11.35 247.39 9.65L247.39 9.65L247.39 3.78L248.09 3.78L248.09 9.51L248.09 9.51Q248.09 10.99 248.82 11.75L248.82 11.75L248.82 11.75Q249.55 12.52 250.96 12.52L250.96 12.52L250.96 12.52Q252.36 12.52 253.09 11.75L253.09 11.75L253.09 11.75Q253.82 10.99 253.82 9.51L253.82 9.51L253.82 3.78L254.52 3.78ZM271.26 13.02L270.44 13.02L267.79 9.02L267.75 9.02L265.02 9.02L265.02 13.02L264.32 13.02L264.32 3.78L267.75 3.78L267.75 3.78Q269.14 3.78 269.95 4.48L269.95 4.48L269.95 4.48Q270.77 5.18 270.77 6.40L270.77 6.40L270.77 6.40Q270.77 7.41 270.19 8.07L270.19 8.07L270.19 8.07Q269.60 8.74 268.58 8.93L268.58 8.93L271.26 13.02ZM265.02 4.42L265.02 8.36L267.74 8.36L267.74 8.36Q268.86 8.36 269.45 7.85L269.45 7.85L269.45 7.85Q270.05 7.35 270.05 6.40L270.05 6.40L270.05 6.40Q270.05 5.45 269.45 4.93L269.45 4.93L269.45 4.93Q268.86 4.42 267.74 4.42L267.74 4.42L265.02 4.42ZM283.35 3.78L283.35 3.78Q284.79 3.78 285.63 4.50L285.63 4.50L285.63 4.50Q286.48 5.22 286.48 6.48L286.48 6.48L286.48 6.48Q286.48 7.74 285.63 8.47L285.63 8.47L285.63 8.47Q284.79 9.20 283.35 9.20L283.35 9.20L280.98 9.20L280.98 13.02L280.28 13.02L280.28 3.78L283.35 3.78ZM283.26 8.54L283.26 8.54Q284.47 8.54 285.10 8.01L285.10 8.01L285.10 8.01Q285.74 7.48 285.74 6.48L285.74 6.48L285.74 6.48Q285.74 5.50 285.10 4.96L285.10 4.96L285.10 4.96Q284.47 4.42 283.26 4.42L283.26 4.42L280.98 4.42L280.98 8.54L283.26 8.54ZM299.17 3.64L299.17 3.64Q300.47 3.64 301.43 4.22L301.43 4.22L301.43 4.22Q302.39 4.80 302.90 5.87L302.90 5.87L302.90 5.87Q303.42 6.94 303.42 8.40L303.42 8.40L303.42 8.40Q303.42 9.86 302.90 10.93L302.90 10.93L302.90 10.93Q302.39 12.00 301.43 12.58L301.43 12.58L301.43 12.58Q300.47 13.16 299.17 13.16L299.17 13.16L299.17 13.16Q297.86 13.16 296.90 12.58L296.90 12.58L296.90 12.58Q295.95 12.00 295.43 10.93L295.43 10.93L295.43 10.93Q294.91 9.86 294.91 8.40L294.91 8.40L294.91 8.40Q294.91 6.94 295.43 5.87L295.43 5.87L295.43 5.87Q295.95 4.80 296.90 4.22L296.90 4.22L296.90 4.22Q297.86 3.64 299.17 3.64L299.17 3.64ZM299.17 4.28L299.17 4.28Q298.09 4.28 297.30 4.78L297.30 4.78L297.30 4.78Q296.51 5.28 296.08 6.21L296.08 6.21L296.08 6.21Q295.65 7.14 295.65 8.40L295.65 8.40L295.65 8.40Q295.65 9.66 296.08 10.59L296.08 10.59L296.08 10.59Q296.51 11.52 297.30 12.02L297.30 12.02L297.30 12.02Q298.09 12.52 299.17 12.52L299.17 12.52L299.17 12.52Q300.24 12.52 301.04 12.02L301.04 12.02L301.04 12.02Q301.84 11.52 302.27 10.59L302.27 10.59L302.27 10.59Q302.69 9.66 302.69 8.40L302.69 8.40L302.69 8.40Q302.69 7.14 302.27 6.21L302.27 6.21L302.27 6.21Q301.84 5.28 301.04 4.78L301.04 4.78L301.04 4.78Q300.24 4.28 299.17 4.28L299.17 4.28ZM315.60 3.64L315.60 3.64Q318.21 3.64 319.09 5.68L319.09 5.68L318.49 6.17L318.49 6.17Q318.14 5.18 317.44 4.73L317.44 4.73L317.44 4.73Q316.75 4.28 315.62 4.28L315.62 4.28L315.62 4.28Q314.80 4.28 314.20 4.54L314.20 4.54L314.20 4.54Q313.60 4.79 313.28 5.22L313.28 5.22L313.28 5.22Q312.97 5.66 312.97 6.20L312.97 6.20L312.97 6.20Q312.97 6.73 313.24 7.08L313.24 7.08L313.24 7.08Q313.50 7.43 314.14 7.68L314.14 7.68L314.14 7.68Q314.78 7.92 315.90 8.12L315.90 8.12L315.90 8.12Q317.70 8.43 318.46 9.02L318.46 9.02L318.46 9.02Q319.21 9.60 319.21 10.64L319.21 10.64L319.21 10.64Q319.21 11.38 318.78 11.96L318.78 11.96L318.78 11.96Q318.35 12.53 317.55 12.84L317.55 12.84L317.55 12.84Q316.76 13.16 315.74 13.16L315.74 13.16L315.74 13.16Q314.29 13.16 313.28 12.58L313.28 12.58L313.28 12.58Q312.28 12.00 311.92 10.95L311.92 10.95L312.54 10.47L312.54 10.47Q312.82 11.47 313.66 11.99L313.66 11.99L313.66 11.99Q314.51 12.52 315.76 12.52L315.76 12.52L315.76 12.52Q316.96 12.52 317.72 12.03L317.72 12.03L317.72 12.03Q318.49 11.54 318.49 10.68L318.49 10.68L318.49 10.68Q318.49 9.94 317.86 9.51L317.86 9.51L317.86 9.51Q317.24 9.07 315.70 8.81L315.70 8.81L315.70 8.81Q314.40 8.58 313.64 8.26L313.64 8.26L313.64 8.26Q312.89 7.94 312.56 7.46L312.56 7.46L312.56 7.46Q312.23 6.99 312.23 6.27L312.23 6.27L312.23 6.27Q312.23 5.56 312.64 4.96L312.64 4.96L312.64 4.96Q313.05 4.35 313.82 4.00L313.82 4.00L313.82 4.00Q314.58 3.64 315.60 3.64L315.60 3.64ZM329.11 12.38L334.95 12.38L334.95 13.02L328.41 13.02L328.41 3.78L334.73 3.78L334.73 4.42L329.11 4.42L329.11 7.99L333.55 7.99L333.55 8.65L329.11 8.65L329.11 12.38Z"></path></g></svg>